<svg xmlns="http://www.w3.org/2000/svg" xml:space="preserve" width="2048" height="2048" style="shape-rendering:geometricPrecision;text-rendering:geometricPrecision;image-rendering:optimizeQuality;fill-rule:evenodd;clip-rule:evenodd"><defs><clipPath id="id0"><path d="M1024-.001c565.539 0 1024 458.462 1024 1024 0 565.539-458.462 1024-1024 1024-565.539 0-1024-458.462-1024-1024 0-565.54 458.462-1024 1024-1024z"/></clipPath><style>.fil1{fill:#afb42b}</style></defs><g id="Layer_x0020_1"><path d="M1024-.001c565.539 0 1024 458.462 1024 1024 0 565.539-458.462 1024-1024 1024-565.539 0-1024-458.462-1024-1024 0-565.54 458.462-1024 1024-1024z" style="fill:#d4e157"/><g style="clip-path:url(#id0)"><g id="_466491680"><path id="_3968110961" class="fil1" d="M1245.79 566.666 2381.67 1702.55l4.94 5.74 4.82 5.86 4.69 5.99 4.56 6.11 4.43 6.23 4.29 6.34 4.15 6.46 4.01 6.57 3.86 6.68 3.73 6.78 3.57 6.89 3.42 6.99 3.27 7.09 3.12 7.19 2.96 7.28 2.79 7.37 2.64 7.46 2.46 7.55 2.31 7.63 2.13 7.72 1.96 7.79 1.78 7.87 1.61 7.94 1.42 8.02 1.25 8.09 1.06 8.15.87 8.22.68 8.28.49 8.34.3 8.4.1 8.45L1329.46 792.148l-.1-8.452-.3-8.397-.49-8.34-.68-8.281-.88-8.218-1.06-8.153-1.24-8.087-1.43-8.017-1.6-7.945-1.79-7.87-1.95-7.793-2.14-7.714-2.3-7.632-2.46-7.549-2.64-7.461-2.8-7.372-2.95-7.281-3.12-7.185-3.27-7.089-3.42-6.991-3.57-6.889-3.73-6.785-3.86-6.679-4.01-6.569-4.16-6.459-4.29-6.345-4.42-6.228-4.56-6.109-4.69-5.989-4.82-5.864z"/><path id="_396797632" class="fil1" d="M1329.46 792.148 2465.34 1928.03l-.18 8.7-.52 8.8-.86 8.92-1.18 9.01-1.51 9.12-1.81 9.2-2.11 9.29-2.39 9.37-2.68 9.45-2.95 9.51-3.2 9.58-3.46 9.65-3.69 9.69-3.93 9.75-4.15 9.79-4.37 9.84-4.56 9.86-4.76 9.9-4.94 9.92-5.12 9.94-5.28 9.95-5.44 9.97-5.58 9.97-5.72 9.96-5.84 9.96-5.96 9.95-6.07 9.93-6.17 9.91-6.25 9.89-6.34 9.85-6.4 9.81-6.46 9.78-1135.89-1135.89 6.47-9.77 6.4-9.81 6.33-9.86 6.26-9.88 6.17-9.91 6.06-9.93 5.97-9.95 5.84-9.96 5.72-9.97 5.58-9.96 5.44-9.968 5.28-9.954 5.12-9.94 4.94-9.922 4.76-9.896 4.56-9.867 4.37-9.833 4.15-9.792 3.92-9.747 3.7-9.698 3.46-9.641 3.2-9.582 2.95-9.517 2.68-9.446 2.39-9.37 2.11-9.289 1.81-9.203 1.5-9.112 1.19-9.016.86-8.915.52-8.807z"/><path id="_396828112" class="fil1" d="M1386.62 1100.36 2522.5 2236.25l5.38 18.29L1392 1118.66z"/><path id="_396810016" class="fil1" d="m1392 1118.66 1135.88 1135.88 127.27 432.73-1135.88-1135.88z"/><path id="_396826048" class="fil1" d="m1519.27 1551.39 1135.88 1135.88 9.59 32.61L1528.86 1584z"/><path id="_396826624" class="fil1" d="m1528.86 1584 1135.88 1135.88h-33.95L1494.91 1584z"/><path id="_396807544" class="fil1" d="m1494.91 1584 1135.88 1135.88h-470.83L1024.08 1584z"/><path id="_396802384" class="fil1" d="m1024.08 1584 1135.88 1135.88h-.08L1024 1584z"/><path id="_396808168" class="fil1" d="m1024 1584 1135.88 1135.88h-504.86L519.139 1584z"/><path id="_466508168" class="fil1" d="M1240.72 561.056c54.711 59.147 88.736 140.652 88.736 231.092 0 92.148-60.661 204.219-129.88 308.215h187.041l5.381 18.297 127.272 432.726 9.593 32.616H519.14l136.865-465.342 5.38-18.297h188.291c-69.647-105.175-131.13-218.614-131.13-309.976 0-90.227 34.062-171.176 88.665-229.862 55.673-59.835 132.641-96.527 216.79-96.527 84.304 0 161.131 36.966 216.718 97.057z"/></g></g><path d="M1024-.001c565.539 0 1024 458.462 1024 1024 0 565.539-458.462 1024-1024 1024-565.539 0-1024-458.462-1024-1024 0-565.54 458.462-1024 1024-1024z" style="fill:none"/><path style="fill:#00897b;fill-rule:nonzero" d="M1024 1100.36h362.62l5.38 18.3 127.27 432.73 9.59 32.61H1024z"/><path style="fill:#26a69a;fill-rule:nonzero" d="M680.365 1100.36H1024V1584H519.139l136.865-465.34 5.381-18.3z"/><path d="M1329.46 792.148c0 134.127-128.521 310.46-224.881 442.669-22.338 30.65-42.899 58.856-59.543 83.4l-21.078 31.082-20.981-31.181c-16.461-24.463-36.845-52.663-59.07-83.414-96-132.823-225.357-311.795-225.357-444.317 0-90.227 34.061-171.176 88.665-229.862 55.672-59.835 132.641-96.527 216.79-96.527 84.304 0 161.131 36.966 216.718 97.057 54.711 59.147 88.736 140.652 88.736 231.092z" style="fill:#fce4ec"/><path d="M1024 904.975c-40.055 0-76.38-16.1-102.723-42.125-26.466-26.15-42.843-62.22-42.843-102s16.377-75.85 42.843-102c26.342-26.022 62.67-42.124 102.723-42.124 40.052 0 76.38 16.1 102.721 42.125 26.468 26.15 42.847 62.218 42.847 101.999 0 39.78-16.378 75.85-42.846 102-26.34 26.024-62.67 42.125-102.722 42.125z" style="fill:#f06292"/></g></svg>
